<svg width="24" height="24" viewBox="0 0 24 24" fill="none" xmlns="http://www.w3.org/2000/svg">
<path d="M12 24C18.65 24 24 18.65 24 12C24 5.34996 18.65 0 12 0C5.34996 0 0 5.34996 0 12C0 18.65 5.34996 24 12 24Z" fill="#8B82FF"/>
<path fill-rule="evenodd" clip-rule="evenodd" d="M5.00004 9.54996C3.54996 13.4 5.55 17.75 9.45 19.15C9.6 19.25 9.75 19.45 9.75 19.6V20.3C9.75 20.4 9.75 20.45 9.69996 20.5C9.65004 20.7 9.45 20.8 9.24996 20.7C6.45 19.8 4.29996 17.65 3.39996 14.85C1.89996 10.1 4.5 5.04996 9.24996 3.54996C9.3 3.50004 9.39996 3.50004 9.45 3.50004C9.65004 3.54996 9.75 3.69996 9.75 3.9V4.59996C9.75 4.85004 9.65004 5.00004 9.45 5.1C7.40004 5.85 5.75004 7.44996 5.00004 9.54996ZM14.3 3.75C14.35 3.54996 14.55 3.45 14.75 3.54996C17.5 4.44996 19.7 6.6 20.6 9.45C22.1 14.2 19.5 19.25 14.75 20.75C14.7 20.8 14.6 20.8 14.55 20.8C14.35 20.75 14.25 20.6 14.25 20.4V19.7C14.25 19.45 14.35 19.3 14.55 19.2C16.6 18.45 18.25 16.85 19 14.75C20.45 10.9 18.45 6.54996 14.55 5.15004C14.4 5.04996 14.25 4.85004 14.25 4.65V3.95004C14.25 3.84996 14.25 3.80004 14.3 3.75Z" fill="white"/>
<path d="M11.355 16H8.858V8.102H11.355C13.874 8.102 15.326 9.708 15.326 12.018C15.326 14.295 13.819 16 11.355 16ZM10.068 9.147V14.955H11.3C13.115 14.955 14.094 13.833 14.094 12.018C14.094 10.236 13.126 9.147 11.3 9.147H10.068Z" fill="white"/>
</svg>
