<svg width="186" height="43" viewBox="0 0 186 43" fill="none" xmlns="http://www.w3.org/2000/svg">
<g clip-path="url(#clip0_3163_3843)">
<path d="M25.0148 26.811C24.6438 26.8434 24.2516 26.859 23.8495 26.859C22.8337 26.859 21.7544 26.7574 20.6371 26.5641C21.6797 27.7675 22.1142 28.906 21.722 29.7455C20.8572 31.5993 16.2847 31.2988 11.5078 29.0739C6.73076 26.8448 3.56068 23.5351 4.42691 21.6813C4.81912 20.8433 5.96892 20.4454 7.5589 20.4666C6.3442 19.4409 5.33406 18.3546 4.57222 17.2697C2.50398 17.549 0.967611 18.3871 0.322872 19.7682C-1.26146 23.164 3.16565 28.5801 10.2084 31.8673C17.2526 35.1503 24.2473 35.0586 25.8274 31.6571C26.4722 30.2816 26.128 28.5731 25.0162 26.811H25.0148ZM29.8031 23.1358C29.03 24.7964 26.9773 25.6612 24.2586 25.7359C24.1246 25.7472 23.9906 25.7472 23.8509 25.7472C22.4161 25.7472 20.8092 25.537 19.1233 25.1081C17.5333 24.7103 15.8573 24.1192 14.1798 23.3404C12.5094 22.5616 10.9829 21.6644 9.65113 20.6965C8.10348 19.5792 6.81964 18.3758 5.86311 17.1667C4.18143 15.0336 3.52541 12.8948 4.2943 11.2399C4.95032 9.83756 6.52337 8.99954 8.64664 8.73008C8.80747 8.95581 8.97959 9.18153 9.16722 9.40726C9.88674 10.2834 10.7417 11.1369 11.7137 11.9481C11.6122 11.9425 11.5092 11.9425 11.4076 11.9425C9.88674 11.9425 8.78631 12.3403 8.40398 13.1572C7.85658 14.3282 8.92457 16.086 10.9942 17.7832C12.1976 18.7666 13.734 19.733 15.4862 20.5498C17.2385 21.361 18.9568 21.9197 20.4833 22.2047C21.2832 22.3599 22.031 22.4361 22.6969 22.4361C24.2177 22.4361 25.3181 22.0382 25.7005 21.2214C26.1082 20.3453 25.6201 19.1531 24.4914 17.906C25.668 18.1162 26.8023 18.2276 27.8759 18.2276C28.2357 18.2276 28.5912 18.2163 28.9284 18.1853C30.0895 19.9855 30.4591 21.7321 29.8045 23.133L29.8031 23.1358ZM23.9412 2.40684C20.496 0.799928 17.0692 0 14.2743 0C11.4795 0 9.12772 0.876111 8.31651 2.6114C7.66612 4.01375 8.03152 5.76033 9.18698 7.55911C9.29984 7.73687 9.42399 7.91322 9.55237 8.09098C9.68076 8.27297 9.82043 8.45638 9.97138 8.63837C10.9604 9.8686 12.2978 11.0988 13.8991 12.2275C14.3505 12.5505 14.8232 12.8609 15.3169 13.1628C16.2142 13.7159 17.182 14.2379 18.202 14.7105C19.2277 15.1888 20.2548 15.5965 21.2593 15.9308C21.8066 16.1128 22.3442 16.2751 22.876 16.4091C24.6649 16.8817 26.3636 17.1187 27.8731 17.1187C27.9648 17.1187 28.0608 17.1187 28.1525 17.1131C28.3895 17.1131 28.6194 17.1018 28.8452 17.0806C29.0554 17.0694 29.2642 17.0482 29.4631 17.0214C31.5906 16.7533 33.1707 15.9097 33.8253 14.5073C35.4096 11.1115 30.9825 5.68979 23.9398 2.40825L23.9412 2.40684ZM29.7213 12.5943C29.3404 13.4111 28.2385 13.809 26.7177 13.809C26.6161 13.809 26.5131 13.809 26.4115 13.8033C26.1054 13.7921 25.7823 13.7652 25.4437 13.7229C25.0571 13.6806 24.6537 13.6157 24.229 13.5296C22.7731 13.2291 21.1563 12.686 19.5056 11.9171C17.862 11.1482 16.4061 10.2566 15.245 9.33813C14.9064 9.07008 14.6002 8.80626 14.3153 8.54244C14.0627 8.30542 13.8314 8.06982 13.6282 7.83845C12.4996 6.59129 12.0156 5.39916 12.4248 4.52869C12.8057 3.71183 13.9075 3.30975 15.4284 3.30975C17.357 3.30975 19.9684 3.95449 22.639 5.20165C27.416 7.42649 30.5861 10.7362 29.7199 12.5943H29.7213ZM5.31008 42.9069C4.81629 42.6769 4.60185 42.0886 4.83322 41.5948L8.38846 33.9694C8.61842 33.4756 9.20673 33.2612 9.70051 33.4926C10.1943 33.7225 10.4087 34.3108 10.1774 34.8046L6.62213 42.43C6.39217 42.9238 5.80386 43.1383 5.31008 42.9069ZM12.4093 40.4493C11.9155 40.2193 11.701 39.631 11.9324 39.1372L13.5055 35.764C13.7354 35.2702 14.3237 35.0557 14.8175 35.2871C15.3113 35.5171 15.5257 36.1054 15.2944 36.5992L13.7213 39.9724C13.4913 40.4662 12.903 40.6806 12.4093 40.4493ZM2.98224 36.0532C2.48846 35.8232 2.27402 35.2349 2.50539 34.7411L4.07844 31.3679C4.3084 30.8741 4.89671 30.6597 5.39049 30.891C5.88427 31.121 6.09872 31.7093 5.86735 32.2031L4.2943 35.5763C4.06433 36.0701 3.47603 36.2846 2.98224 36.0532Z" fill="#FF4E00"/>
<path d="M46.0281 13.9973H41V9.20483H56.8758V13.9973H51.8745V34.7023H46.0281V13.9973ZM64.3757 8.00141V16.5777C65.1333 15.3799 66.4749 14.4925 68.7181 14.4925C72.1591 14.4925 73.6023 16.7611 73.6023 20.5802V34.7023H67.8321V21.5494C67.8321 20.0427 67.581 19.0946 66.166 19.0946C64.7509 19.0946 64.3757 20.1753 64.3757 22.1673V34.7023H58.6055V8.00141H64.3757ZM77.0292 21.5945C77.0292 18.2284 77.0165 16.1869 76.9784 14.8438H82.4961C82.5469 15.2911 82.623 16.297 82.623 18.0675C83.3016 15.9048 85.0271 14.5024 87.6653 14.5165V20.7579C84.2807 20.6846 82.8008 21.5494 82.8008 25.075V34.7009H77.0306V21.5931L77.0292 21.5945ZM104.65 28.4779C104.65 31.7411 104.65 33.7091 104.688 34.7009H99.2099C99.0829 34.083 99.0194 33.2168 98.9814 32.6891C97.9952 34.423 96.6098 35.0282 94.5839 35.0282C91.6508 35.0282 89.7025 33.5427 89.7025 29.1381V14.8438H95.4727V28.0701C95.4727 29.6305 95.7859 30.4262 97.0048 30.4262C98.3098 30.4262 98.8798 29.6756 98.8798 27.4282V14.8424H104.65V28.4779ZM112.433 28.5399C112.46 29.7504 112.907 30.9708 114.363 30.9708C115.498 30.9708 115.993 30.3444 115.993 29.3469C115.993 28.2197 115.478 27.6356 113.318 26.8442C108.706 25.1611 107.415 23.5781 107.415 20.4306C107.415 17.4454 109.234 14.4925 114.225 14.4925C120.039 14.4925 121.113 18.2072 121.113 20.7086H115.914C115.914 19.8155 115.784 18.4315 114.27 18.4315C113.359 18.4315 112.875 19.0043 112.875 19.8804C112.875 20.9188 113.46 21.4196 115.739 22.2506C119.969 23.7982 121.582 25.4884 121.582 28.6486C121.582 32.6553 119.26 35.0409 114.255 35.0409C108.812 35.0409 107.055 31.8793 107.016 28.5385H112.435L112.433 28.5399ZM122.437 14.8438H124.808V10.1571H130.511V14.8438H133.244V19.4036H130.511V28.9039C130.511 29.9592 130.753 30.484 132.017 30.484C132.377 30.484 132.604 30.484 132.941 30.422V34.5528C131.941 34.9309 130.51 34.9676 129.727 34.9676C125.993 34.9676 124.753 33.5469 124.753 29.8957V19.4036H122.435V14.8438H122.437ZM135.321 9.20483H143.688C148.114 9.20483 151.295 11.6554 151.295 16.9346C151.295 22.2139 148.443 24.7491 143.429 24.7491H141.142V34.7023H135.322V9.20483H135.321ZM141.14 20.267H142.663C144.682 20.267 145.449 19.2822 145.449 16.8853C145.449 14.4883 144.431 13.6051 142.784 13.6051H141.142V20.267H141.14ZM167.311 29.8097C167.311 31.1669 167.4 33.7049 167.462 34.7023H162.25C162.135 34.2721 162.035 33.4806 162.022 32.9783C161.054 34.3087 159.676 35.0424 157.589 35.0424C154.065 35.0424 152.314 32.3265 152.314 28.9251C152.314 24.584 155.239 22.4043 160.065 22.4043C160.644 22.4043 161.24 22.4043 161.641 22.4283V20.4955C161.641 19.4247 161.489 18.5218 160.074 18.5218C158.757 18.5218 158.532 19.3528 158.457 20.7692H153.043C153.12 17.2662 154.824 14.5165 160.302 14.5165C164.925 14.5165 167.31 16.376 167.31 20.4701V29.8097H167.311ZM161.716 26.0724C161.369 26.0231 161.03 26.0231 160.621 26.0231C158.626 26.0231 157.995 27.0783 157.995 28.4313C157.995 29.5811 158.472 30.5602 159.714 30.5602C161.414 30.5602 161.716 29.2439 161.716 27.012V26.0724ZM185.592 8.00141V28.7939C185.592 31.5026 185.619 33.6626 185.657 34.7023H180.115C180.027 34.1846 179.964 33.2817 179.952 32.7526C179.225 34.2199 177.95 35.0424 175.66 35.0424C171.851 35.0424 170.003 31.9033 170.003 24.5756C170.003 17.9603 172.17 14.5165 176.399 14.5165C178.359 14.5165 179.419 15.2205 179.822 15.9372V8H185.592V8.00141ZM175.875 24.6645C175.875 29.1014 176.406 30.5024 177.861 30.5024C179.574 30.5024 179.921 29.1861 179.921 24.5262C179.921 20.2599 179.696 19.0946 178.011 19.0946C176.658 19.0946 175.875 20.0483 175.875 24.6645Z" fill="white"/>
</g>
<defs>
<clipPath id="clip0_3163_3843">
<rect width="185.736" height="43" fill="white"/>
</clipPath>
</defs>
</svg>
