<svg width="125" height="23" viewBox="0 0 125 23" fill="none" xmlns="http://www.w3.org/2000/svg">
<g clip-path="url(#clip0_3299_3409)">
<path d="M4.34431 5.10073H0V1.02421H13.7182V5.10073H9.39588V22.7107H4.34431V5.10073ZM20.1985 0V7.29538C20.8528 6.27689 22.0128 5.5216 23.9505 5.5216C26.9243 5.5216 28.1708 7.45178 28.1708 10.6993V22.7107H23.1845V11.5226C23.1845 10.2409 22.9675 9.43536 21.7454 9.43536C20.5234 9.43536 20.1985 10.3547 20.1985 12.049V22.7107H15.2122V0H20.1985ZM31.1323 11.562C31.1323 8.69851 31.1213 6.96288 31.0884 5.81978H35.8557C35.9003 6.2006 35.9649 7.0557 35.9649 8.56182C36.5507 6.72192 38.0415 5.52987 40.3221 5.54131V10.8506C37.3981 10.7883 36.1186 11.5238 36.1186 14.5227V22.7107H31.1323V11.562ZM55.0002 17.4174C55.0002 20.1931 55.0001 21.8664 55.0331 22.7107H50.3C50.1908 22.1856 50.1353 21.4487 50.1023 20.9993C49.2504 22.4749 48.0535 22.9886 46.3025 22.9886C43.7673 22.9886 42.0841 21.7247 42.0841 17.9781V5.81978H47.0705V17.0702C47.0705 18.3971 47.3411 19.0742 48.3946 19.0742C49.5229 19.0742 50.0151 18.4359 50.0151 16.5248V5.81978H55.0008V17.4174H55.0002ZM61.7265 17.4689C61.7491 18.4988 62.136 19.5364 63.3942 19.5364C64.3741 19.5364 64.8029 19.0036 64.8029 18.1549C64.8029 17.1968 64.3579 16.699 62.4913 16.0263C58.5061 14.5939 57.39 13.2487 57.39 10.5708C57.39 8.0316 58.9608 5.52033 63.2747 5.52033C68.2992 5.52033 69.2267 8.68007 69.2267 10.808H64.7338C64.7338 10.0482 64.6214 8.8708 63.3142 8.8708C62.5268 8.8708 62.1076 9.35843 62.1076 10.1035C62.1076 10.9866 62.6127 11.4132 64.582 12.1202C68.2365 13.4369 69.631 14.8743 69.631 17.5623C69.631 20.97 67.6249 23 63.2986 23C58.5952 23 57.0774 20.3114 57.0431 17.4695H61.7252L61.7265 17.4689ZM70.3706 5.81978H72.4194V1.83291H77.3489V5.81978H79.7103V9.69729H77.3489V17.7778C77.3489 18.6755 77.5575 19.1218 78.6503 19.1218C78.9617 19.1218 79.1574 19.1218 79.4493 19.0691V22.5823C78.5845 22.9034 77.3489 22.9358 76.672 22.9358C73.4457 22.9358 72.3735 21.7278 72.3735 18.6221V9.69793H70.3706V5.82041V5.81978ZM81.5033 1.02421H88.7335C92.5578 1.02421 95.3068 3.10825 95.3068 7.598C95.3068 12.0878 92.842 14.2443 88.5087 14.2443H86.5322V22.7107H81.5033V1.02421ZM86.5316 10.4329H87.8466C89.5906 10.4329 90.2539 9.59557 90.2539 7.55668C90.2539 5.51779 89.3742 4.76695 87.9506 4.76695H86.531V10.4329H86.5316ZM109.146 18.5497C109.146 19.7036 109.223 21.8633 109.277 22.7114H104.774C104.674 22.3452 104.588 21.6725 104.576 21.2453C103.74 22.3763 102.549 23.0006 100.746 23.0006C97.7011 23.0006 96.1878 20.6909 96.1878 17.7976C96.1878 14.1057 98.7152 12.2512 102.886 12.2512C103.385 12.2512 103.9 12.2512 104.248 12.2715V10.6274C104.248 9.717 104.116 8.949 102.893 8.949C101.756 8.949 101.56 9.65597 101.496 10.8607H96.8188C96.884 7.88092 98.3567 5.54195 103.091 5.54195C107.086 5.54195 109.146 7.12373 109.146 10.6058V18.5497ZM104.312 15.3708C104.012 15.3289 103.72 15.3289 103.366 15.3289C101.643 15.3289 101.097 16.2266 101.097 17.3773C101.097 18.3551 101.51 19.188 102.582 19.188C104.051 19.188 104.312 18.0684 104.312 16.17V15.3708ZM124.944 0V17.6857C124.944 19.989 124.967 21.8264 125 22.7107H120.211C120.134 22.2708 120.081 21.5015 120.069 21.052C119.442 22.3 118.339 23 116.361 23C113.07 23 111.472 20.3298 111.472 14.0974C111.472 8.47027 113.344 5.54195 117 5.54195C118.693 5.54195 119.609 6.14084 119.957 6.75117V0H124.944H124.944ZM116.546 14.1724C116.546 17.9463 117.006 19.1384 118.263 19.1384C119.742 19.1384 120.043 18.0188 120.043 14.0555C120.043 10.4265 119.848 9.43536 118.392 9.43536C117.223 9.43536 116.546 10.2466 116.546 14.1724Z" fill="white"/>
</g>
<defs>
<clipPath id="clip0_3299_3409">
<rect width="125" height="23" fill="white"/>
</clipPath>
</defs>
</svg>
