<svg width="35" height="43" viewBox="0 0 35 43" fill="none" xmlns="http://www.w3.org/2000/svg">
<path d="M25.0151 26.811C24.644 26.8434 24.2518 26.859 23.8497 26.859C22.834 26.859 21.7547 26.7574 20.6373 26.5641C21.6799 27.7675 22.1144 28.906 21.7222 29.7455C20.8574 31.5993 16.285 31.2988 11.508 29.0739C6.731 26.8448 3.56092 23.5351 4.42716 21.6813C4.81936 20.8433 5.96917 20.4454 7.55915 20.4666C6.34444 19.4409 5.3343 18.3546 4.57247 17.2697C2.50422 17.549 0.967856 18.3871 0.323117 19.7682C-1.26122 23.164 3.16589 28.5801 10.2086 31.8673C17.2528 35.1503 24.2476 35.0586 25.8277 31.6571C26.4724 30.2816 26.1282 28.5731 25.0165 26.811H25.0151ZM29.8033 23.1358C29.0302 24.7964 26.9775 25.6612 24.2589 25.7359C24.1248 25.7472 23.9908 25.7472 23.8512 25.7472C22.4164 25.7472 20.8095 25.537 19.1235 25.1081C17.5336 24.7103 15.8575 24.1192 14.1801 23.3404C12.5097 22.5616 10.9832 21.6644 9.65138 20.6965C8.10372 19.5792 6.81988 18.3758 5.86336 17.1667C4.18167 15.0336 3.52565 12.8948 4.29454 11.2399C4.95056 9.83756 6.52361 8.99954 8.64688 8.73008C8.80771 8.95581 8.97983 9.18153 9.16747 9.40726C9.88698 10.2834 10.7419 11.1369 11.714 11.9481C11.6124 11.9425 11.5094 11.9425 11.4078 11.9425C9.88698 11.9425 8.78655 12.3403 8.40422 13.1572C7.85683 14.3282 8.92481 16.086 10.9945 17.7832C12.1979 18.7666 13.7343 19.733 15.4865 20.5498C17.2387 21.361 18.9571 21.9197 20.4836 22.2047C21.2835 22.3599 22.0312 22.4361 22.6971 22.4361C24.218 22.4361 25.3184 22.0382 25.7007 21.2214C26.1084 20.3453 25.6203 19.1531 24.4917 17.906C25.6683 18.1162 26.8026 18.2276 27.8762 18.2276C28.2359 18.2276 28.5915 18.2163 28.9286 18.1853C30.0897 19.9855 30.4594 21.7321 29.8048 23.133L29.8033 23.1358ZM23.9414 2.40684C20.4963 0.799928 17.0694 0 14.2746 0C11.4798 0 9.12797 0.876111 8.31675 2.6114C7.66637 4.01375 8.03177 5.76033 9.18722 7.55911C9.30008 7.73687 9.42423 7.91322 9.55262 8.09098C9.681 8.27297 9.82067 8.45638 9.97163 8.63837C10.9606 9.8686 12.298 11.0988 13.8993 12.2275C14.3508 12.5505 14.8234 12.8609 15.3172 13.1628C16.2145 13.7159 17.1823 14.2379 18.2023 14.7105C19.2279 15.1888 20.255 15.5965 21.2595 15.9308C21.8069 16.1128 22.3444 16.2751 22.8763 16.4091C24.6652 16.8817 26.3638 17.1187 27.8734 17.1187C27.9651 17.1187 28.061 17.1187 28.1527 17.1131C28.3897 17.1131 28.6197 17.1018 28.8454 17.0806C29.0556 17.0694 29.2644 17.0482 29.4633 17.0214C31.5908 16.7533 33.1709 15.9097 33.8256 14.5073C35.4099 11.1115 30.9828 5.68979 23.94 2.40825L23.9414 2.40684ZM29.7215 12.5943C29.3406 13.4111 28.2388 13.809 26.7179 13.809C26.6163 13.809 26.5133 13.809 26.4118 13.8033C26.1056 13.7921 25.7825 13.7652 25.444 13.7229C25.0574 13.6806 24.6539 13.6157 24.2292 13.5296C22.7733 13.2291 21.1565 12.686 19.5059 11.9171C17.8623 11.1482 16.4063 10.2566 15.2452 9.33813C14.9066 9.07008 14.6005 8.80626 14.3155 8.54244C14.063 8.30542 13.8316 8.06982 13.6284 7.83845C12.4998 6.59129 12.0159 5.39916 12.425 4.52869C12.8059 3.71183 13.9078 3.30975 15.4286 3.30975C17.3572 3.30975 19.9686 3.95449 22.6393 5.20165C27.4163 7.42649 30.5863 10.7362 29.7201 12.5943H29.7215ZM5.31032 42.9069C4.81654 42.6769 4.6021 42.0886 4.83347 41.5948L8.3887 33.9694C8.61866 33.4756 9.20697 33.2612 9.70075 33.4926C10.1945 33.7225 10.409 34.3108 10.1776 34.8046L6.62237 42.43C6.39241 42.9238 5.8041 43.1383 5.31032 42.9069ZM12.4095 40.4493C11.9157 40.2193 11.7013 39.631 11.9327 39.1372L13.5057 35.764C13.7357 35.2702 14.324 35.0557 14.8178 35.2871C15.3115 35.5171 15.526 36.1054 15.2946 36.5992L13.7216 39.9724C13.4916 40.4662 12.9033 40.6806 12.4095 40.4493ZM2.98249 36.0532C2.48871 35.8232 2.27426 35.2349 2.50564 34.7411L4.07869 31.3679C4.30865 30.8741 4.89695 30.6597 5.39074 30.891C5.88452 31.121 6.09896 31.7093 5.86759 32.2031L4.29454 35.5763C4.06458 36.0701 3.47627 36.2846 2.98249 36.0532Z" fill="#FF4E00"/>
</svg>
