<svg width="619" height="250" viewBox="0 0 619 250" fill="none" xmlns="http://www.w3.org/2000/svg">
<g clip-path="url(#clip0_3067_19194)">
<rect width="619" height="250" rx="8" fill="#F8F8F8"/>
<g clip-path="url(#clip1_3067_19194)">
<path d="M210.541 131.971C210.057 132.013 209.546 132.033 209.021 132.033C207.696 132.033 206.289 131.901 204.831 131.649C206.191 133.218 206.758 134.704 206.246 135.798C205.118 138.216 199.154 137.824 192.923 134.923C186.693 132.015 182.558 127.698 183.688 125.28C184.199 124.187 185.699 123.668 187.773 123.696C186.188 122.358 184.871 120.941 183.877 119.526C181.179 119.89 179.175 120.983 178.335 122.785C176.268 127.214 182.042 134.278 191.229 138.566C200.417 142.848 209.54 142.729 211.601 138.292C212.442 136.498 211.993 134.269 210.543 131.971H210.541ZM216.787 127.177C215.779 129.343 213.101 130.471 209.555 130.569C209.38 130.583 209.205 130.583 209.023 130.583C207.152 130.583 205.056 130.309 202.857 129.75C200.783 129.231 198.597 128.46 196.409 127.444C194.23 126.428 192.239 125.258 190.502 123.995C188.483 122.538 186.809 120.968 185.561 119.391C183.367 116.609 182.512 113.819 183.515 111.661C184.37 109.832 186.422 108.739 189.192 108.387C189.401 108.681 189.626 108.976 189.871 109.27C190.809 110.413 191.924 111.526 193.192 112.585C193.06 112.577 192.925 112.577 192.793 112.577C190.809 112.577 189.374 113.096 188.875 114.162C188.161 115.689 189.554 117.982 192.254 120.196C193.823 121.478 195.827 122.739 198.113 123.804C200.398 124.862 202.64 125.591 204.631 125.963C205.674 126.165 206.649 126.264 207.518 126.264C209.502 126.264 210.937 125.746 211.436 124.68C211.968 123.537 211.331 121.982 209.859 120.356C211.393 120.63 212.873 120.775 214.273 120.775C214.743 120.775 215.206 120.76 215.646 120.72C217.161 123.068 217.643 125.346 216.789 127.173L216.787 127.177ZM209.141 100.139C204.647 98.0434 200.177 97 196.532 97C192.887 97 189.819 98.1428 188.761 100.406C187.913 102.235 188.389 104.513 189.896 106.86C190.044 107.092 190.206 107.322 190.373 107.553C190.54 107.791 190.723 108.03 190.92 108.267C192.209 109.872 193.954 111.477 196.043 112.949C196.631 113.37 197.248 113.775 197.892 114.169C199.062 114.89 200.325 115.571 201.655 116.188C202.993 116.811 204.333 117.343 205.643 117.779C206.357 118.017 207.058 118.228 207.752 118.403C210.085 119.02 212.301 119.329 214.27 119.329C214.389 119.329 214.514 119.329 214.634 119.321C214.943 119.321 215.243 119.307 215.537 119.279C215.812 119.264 216.084 119.237 216.343 119.202C219.118 118.852 221.18 117.752 222.033 115.923C224.1 111.493 218.325 104.421 209.139 100.141L209.141 100.139ZM216.68 113.427C216.183 114.493 214.746 115.012 212.763 115.012C212.63 115.012 212.496 115.012 212.363 115.004C211.964 114.99 211.542 114.955 211.101 114.899C210.597 114.844 210.07 114.76 209.516 114.647C207.617 114.255 205.508 113.547 203.355 112.544C201.212 111.541 199.313 110.378 197.798 109.18C197.356 108.831 196.957 108.486 196.585 108.142C196.256 107.833 195.954 107.526 195.689 107.224C194.217 105.597 193.586 104.042 194.12 102.907C194.616 101.842 196.054 101.317 198.037 101.317C200.553 101.317 203.959 102.158 207.443 103.785C213.673 106.687 217.808 111.004 216.678 113.427H216.68ZM184.84 152.966C184.195 152.666 183.916 151.898 184.218 151.254L188.855 141.308C189.155 140.664 189.922 140.384 190.566 140.686C191.21 140.986 191.49 141.753 191.188 142.397L186.551 152.344C186.251 152.988 185.484 153.267 184.84 152.966ZM194.099 149.76C193.455 149.46 193.176 148.693 193.477 148.049L195.529 143.649C195.829 143.005 196.596 142.725 197.241 143.027C197.885 143.327 198.164 144.094 197.863 144.738L195.811 149.138C195.511 149.782 194.743 150.062 194.099 149.76ZM181.803 144.026C181.159 143.726 180.879 142.959 181.181 142.315L183.233 137.915C183.533 137.271 184.3 136.991 184.944 137.293C185.589 137.593 185.868 138.36 185.566 139.004L183.515 143.404C183.215 144.048 182.447 144.328 181.803 144.026Z" fill="#DA5921"/>
<path d="M241.965 117.996H235.407V111.745H256.115V117.996H249.591V145.003H241.965V117.996ZM265.897 110.176V121.362C266.885 119.8 268.635 118.642 271.561 118.642C276.049 118.642 277.932 121.601 277.932 126.583V145.003H270.405V127.847C270.405 125.882 270.078 124.645 268.232 124.645C266.386 124.645 265.897 126.055 265.897 128.653V145.003H258.371V110.176H265.897ZM282.402 127.906C282.402 123.515 282.385 120.852 282.335 119.101H289.532C289.599 119.684 289.698 120.996 289.698 123.305C290.583 120.484 292.834 118.655 296.275 118.674V126.815C291.86 126.719 289.93 127.847 289.93 132.446V145.001H282.403V127.904L282.402 127.906ZM318.429 136.884C318.429 141.14 318.429 143.708 318.478 145.001H311.333C311.167 144.195 311.085 143.065 311.035 142.377C309.749 144.639 307.941 145.428 305.299 145.428C301.473 145.428 298.932 143.49 298.932 137.745V119.101H306.458V136.352C306.458 138.388 306.867 139.425 308.457 139.425C310.159 139.425 310.902 138.446 310.902 135.515V119.099H318.429V136.884ZM328.581 136.965C328.616 138.544 329.199 140.136 331.098 140.136C332.578 140.136 333.224 139.319 333.224 138.018C333.224 136.547 332.552 135.786 329.735 134.753C323.719 132.558 322.035 130.493 322.035 126.388C322.035 122.494 324.407 118.642 330.918 118.642C338.501 118.642 339.902 123.488 339.902 126.75H333.121C333.121 125.585 332.951 123.78 330.977 123.78C329.788 123.78 329.157 124.527 329.157 125.67C329.157 127.024 329.921 127.678 332.893 128.762C338.409 130.78 340.515 132.985 340.515 137.107C340.515 142.333 337.486 145.445 330.957 145.445C323.857 145.445 321.566 141.321 321.515 136.963H328.583L328.581 136.965ZM341.63 119.101H344.721V112.987H352.161V119.101H355.726V125.048H352.161V137.44C352.161 138.816 352.476 139.501 354.125 139.501C354.594 139.501 354.89 139.501 355.33 139.42V144.808C354.025 145.301 352.159 145.349 351.138 145.349C346.267 145.349 344.649 143.496 344.649 138.733V125.048H341.626V119.101H341.63ZM358.434 111.745H369.348C375.121 111.745 379.271 114.942 379.271 121.828C379.271 128.714 375.55 132.021 369.01 132.021H366.027V145.003H358.436V111.745H358.434ZM366.025 126.174H368.011C370.644 126.174 371.645 124.89 371.645 121.763C371.645 118.637 370.316 117.485 368.169 117.485H366.027V126.174H366.025ZM400.16 138.621C400.16 140.391 400.276 143.702 400.357 145.003H393.56C393.409 144.442 393.278 143.409 393.262 142.754C391.999 144.49 390.201 145.446 387.48 145.446C382.883 145.446 380.599 141.904 380.599 137.467C380.599 131.805 384.414 128.962 390.709 128.962C391.464 128.962 392.242 128.962 392.765 128.993V126.472C392.765 125.076 392.566 123.898 390.72 123.898C389.003 123.898 388.709 124.982 388.611 126.829H381.551C381.65 122.26 383.873 118.674 391.018 118.674C397.049 118.674 400.159 121.099 400.159 126.439V138.621H400.16ZM392.862 133.747C392.41 133.682 391.968 133.682 391.434 133.682C388.832 133.682 388.01 135.059 388.01 136.823C388.01 138.323 388.632 139.6 390.251 139.6C392.468 139.6 392.862 137.883 392.862 134.972V133.747ZM424.006 110.176V137.296C424.006 140.829 424.04 143.647 424.09 145.003H416.862C416.746 144.328 416.665 143.15 416.648 142.46C415.701 144.374 414.037 145.446 411.051 145.446C406.082 145.446 403.672 141.352 403.672 131.794C403.672 123.166 406.498 118.674 412.015 118.674C414.571 118.674 415.953 119.592 416.479 120.527V110.174H424.006V110.176ZM411.33 131.91C411.33 137.697 412.024 139.525 413.921 139.525C416.155 139.525 416.608 137.808 416.608 131.73C416.608 126.165 416.315 124.645 414.116 124.645C412.352 124.645 411.33 125.889 411.33 131.91Z" fill="#1E1C1B"/>
</g>
<rect x="16" y="196" width="44" height="44" rx="22" fill="#EBEBED"/>
<path d="M43.1783 221.341C42.9383 221.362 42.6847 221.372 42.4246 221.372C41.7676 221.372 41.0696 221.306 40.3469 221.181C41.0212 221.96 41.3022 222.696 41.0486 223.239C40.4892 224.438 37.5318 224.244 34.4421 222.805C31.3524 221.363 29.3021 219.222 29.8623 218.023C30.116 217.481 30.8597 217.224 31.8881 217.238C31.1024 216.574 30.4491 215.872 29.9563 215.17C28.6186 215.35 27.6249 215.893 27.2079 216.786C26.1832 218.982 29.0466 222.485 33.6017 224.611C38.1578 226.735 42.6819 226.675 43.7039 224.475C44.1209 223.586 43.8983 222.481 43.1792 221.341H43.1783ZM46.2753 218.964C45.7753 220.038 44.4476 220.597 42.6892 220.646C42.6025 220.653 42.5159 220.653 42.4255 220.653C41.4975 220.653 40.4582 220.517 39.3678 220.24C38.3394 219.982 37.2553 219.6 36.1704 219.096C35.09 218.593 34.1027 218.012 33.2413 217.386C32.2403 216.664 31.4099 215.885 30.7912 215.103C29.7035 213.724 29.2792 212.34 29.7765 211.27C30.2009 210.363 31.2183 209.821 32.5916 209.647C32.6956 209.793 32.8069 209.938 32.9283 210.084C33.3937 210.651 33.9466 211.203 34.5753 211.728C34.5096 211.724 34.443 211.724 34.3773 211.724C33.3937 211.724 32.6819 211.982 32.4346 212.51C32.0806 213.267 32.7713 214.404 34.11 215.502C34.8883 216.138 35.882 216.763 37.0153 217.291C38.1487 217.816 39.2601 218.177 40.2474 218.362C40.7648 218.462 41.2484 218.511 41.6791 218.511C42.6628 218.511 43.3745 218.254 43.6218 217.726C43.8855 217.159 43.5698 216.388 42.8398 215.581C43.6008 215.717 44.3344 215.789 45.0289 215.789C45.2615 215.789 45.4915 215.782 45.7096 215.762C46.4606 216.926 46.6996 218.056 46.2762 218.962L46.2753 218.964ZM42.4839 205.557C40.2556 204.517 38.0392 204 36.2315 204C34.4239 204 32.9027 204.567 32.3781 205.689C31.9574 206.596 32.1937 207.726 32.9411 208.889C33.0141 209.004 33.0944 209.118 33.1774 209.233C33.2604 209.351 33.3508 209.469 33.4484 209.587C34.0881 210.383 34.9531 211.179 35.9888 211.909C36.2808 212.118 36.5865 212.318 36.9059 212.514C37.4862 212.871 38.1122 213.209 38.7719 213.515C39.4353 213.824 40.0996 214.088 40.7493 214.304C41.1033 214.422 41.451 214.527 41.795 214.613C42.952 214.919 44.0507 215.072 45.027 215.072C45.0863 215.072 45.1484 215.072 45.2077 215.069C45.361 215.069 45.5097 215.061 45.6557 215.048C45.7917 215.04 45.9267 215.027 46.0554 215.009C47.4314 214.836 48.4534 214.29 48.8768 213.383C49.9016 211.187 47.0382 207.68 42.483 205.558L42.4839 205.557ZM46.2224 212.146C45.976 212.674 45.2634 212.931 44.2797 212.931C44.214 212.931 44.1474 212.931 44.0817 212.928C43.8837 212.921 43.6747 212.903 43.4557 212.876C43.2057 212.848 42.9447 212.806 42.6701 212.751C41.7284 212.556 40.6827 212.205 39.615 211.708C38.552 211.211 37.6103 210.634 36.8593 210.04C36.6403 209.866 36.4423 209.696 36.258 209.525C36.0946 209.372 35.945 209.219 35.8136 209.07C35.0836 208.263 34.7706 207.492 35.0352 206.929C35.2816 206.401 35.9943 206.141 36.9779 206.141C38.2253 206.141 39.9143 206.558 41.6417 207.364C44.7314 208.803 46.7818 210.944 46.2215 212.146H46.2224ZM30.4335 231.752C30.1142 231.603 29.9755 231.222 30.1251 230.903L32.4246 225.971C32.5733 225.652 32.9538 225.513 33.2732 225.663C33.5926 225.811 33.7313 226.192 33.5816 226.511L31.2822 231.443C31.1334 231.763 30.7529 231.901 30.4335 231.752ZM35.0252 230.162C34.7058 230.013 34.5671 229.633 34.7168 229.313L35.7342 227.132C35.8829 226.812 36.2635 226.674 36.5828 226.823C36.9022 226.972 37.0409 227.353 36.8913 227.672L35.8738 229.854C35.7251 230.173 35.3446 230.312 35.0252 230.162ZM28.9279 227.319C28.6086 227.17 28.4699 226.789 28.6195 226.47L29.6369 224.288C29.7857 223.969 30.1662 223.83 30.4856 223.98C30.8049 224.129 30.9436 224.509 30.794 224.829L29.7765 227.01C29.6278 227.33 29.2473 227.468 28.9279 227.319Z" fill="#DA5921"/>
<path d="M73.082 225H71.542V216.334H68.266V214.948H76.358V216.334H73.082V225ZM78.921 220.814V225H77.507V214.948H78.921V218.77C79.411 217.972 80.167 217.44 81.189 217.44C82.715 217.44 83.723 218.42 83.723 220.198V225H82.309V220.674C82.309 219.4 81.749 218.686 80.699 218.686C79.733 218.686 78.921 219.498 78.921 220.814ZM86.9147 221.206V225H85.5007V217.58H86.8167V219.148C87.3347 218.126 88.4547 217.482 89.6727 217.482V218.952C88.0767 218.868 86.9147 219.568 86.9147 221.206ZM95.3257 221.948V217.58H96.7397V225H95.4237V223.824C95.0317 224.594 94.1637 225.14 93.1557 225.14C91.6577 225.14 90.6217 224.258 90.6217 222.354V217.58H92.0357V222.074C92.0357 223.362 92.6797 223.894 93.6037 223.894C94.5557 223.894 95.3257 223.11 95.3257 221.948ZM104.483 222.788C104.483 224.244 103.349 225.14 101.375 225.14C99.4154 225.14 98.2534 224.174 98.1134 222.578H99.4714C99.5274 223.502 100.269 224.076 101.403 224.076C102.397 224.076 103.055 223.726 103.055 223.026C103.055 222.41 102.677 222.144 101.753 221.962L100.549 221.738C99.1774 221.472 98.4074 220.772 98.4074 219.652C98.4074 218.35 99.5414 217.44 101.263 217.44C103.041 217.44 104.245 218.392 104.371 219.918H103.013C102.929 219.022 102.271 218.504 101.277 218.504C100.381 218.504 99.7794 218.882 99.7794 219.526C99.7794 220.128 100.157 220.408 101.053 220.576L102.313 220.814C103.783 221.08 104.483 221.724 104.483 222.788ZM110.018 223.628V224.874C109.584 225.07 109.206 225.14 108.758 225.14C107.386 225.14 106.434 224.398 106.434 222.76V218.784H104.796V217.58H106.434V215.382H107.848V217.58H110.088V218.784H107.848V222.438C107.848 223.46 108.338 223.824 109.094 223.824C109.43 223.824 109.724 223.768 110.018 223.628ZM118.421 221.29C118.421 223.53 117.133 225.14 115.145 225.14C114.137 225.14 113.283 224.636 112.751 223.74V227.702H111.337V217.58H112.653V218.938C113.185 217.986 114.095 217.44 115.145 217.44C117.119 217.44 118.421 219.05 118.421 221.29ZM116.951 221.29C116.951 219.624 116.069 218.686 114.851 218.686C113.675 218.686 112.751 219.624 112.751 221.29C112.751 222.928 113.661 223.88 114.851 223.88C116.069 223.88 116.951 222.956 116.951 221.29ZM124.249 225V223.852C123.787 224.678 122.961 225.14 121.869 225.14C120.329 225.14 119.321 224.258 119.321 222.9C119.321 221.444 120.483 220.688 122.695 220.688C123.129 220.688 123.479 220.702 124.081 220.772V220.226C124.081 219.162 123.507 218.56 122.527 218.56C121.491 218.56 120.861 219.176 120.819 220.212H119.531C119.601 218.546 120.791 217.44 122.527 217.44C124.361 217.44 125.425 218.476 125.425 220.24V225H124.249ZM120.665 222.858C120.665 223.628 121.239 224.132 122.149 224.132C123.339 224.132 124.081 223.39 124.081 222.256V221.654C123.535 221.584 123.143 221.57 122.779 221.57C121.365 221.57 120.665 221.99 120.665 222.858ZM126.683 221.29C126.683 219.036 127.971 217.44 129.973 217.44C130.967 217.44 131.835 217.944 132.353 218.854V214.948H133.767V225H132.451V223.67C131.919 224.608 131.023 225.14 129.973 225.14C127.971 225.14 126.683 223.516 126.683 221.29ZM128.153 221.29C128.153 222.942 129.021 223.88 130.253 223.88C131.457 223.88 132.353 222.9 132.353 221.262C132.353 219.596 131.429 218.686 130.253 218.686C129.021 218.686 128.153 219.61 128.153 221.29Z" fill="#363636"/>
</g>
<defs>
<clipPath id="clip0_3067_19194">
<rect width="619" height="250" rx="8" fill="white"/>
</clipPath>
<clipPath id="clip1_3067_19194">
<rect width="270" height="56.087" fill="white" transform="translate(174 97)"/>
</clipPath>
</defs>
</svg>
