<svg width="28" height="28" viewBox="0 0 28 28" fill="none" xmlns="http://www.w3.org/2000/svg">
<path d="M14 27.9988C21.7584 27.9988 28 21.7572 28 13.9988C28 6.24043 21.7584 -0.00119424 14 -0.00119424C6.24162 -0.00119424 0 6.24043 0 13.9988C0 21.7572 6.24162 27.9988 14 27.9988Z" fill="#222E42"/>
<g clip-path="url(#clip0_3280_26172)">
<path d="M20.9746 12.8053C20.7031 11.003 19.7187 9.42068 18.4269 8.28444C18.0191 7.91624 17.6336 7.53152 17.1723 7.2378C16.2433 7.63624 15.2445 7.89524 14.2085 7.94844C12.9786 8.06352 10.7948 8.00808 9.95838 7.00596C9.92404 6.99028 9.89476 6.9984 9.85722 7.01772C9.25163 7.26944 8.69235 7.6452 8.24753 8.13884C7.94008 8.52608 7.42925 8.70864 6.94876 8.62912C5.93163 8.53084 4.4372 8.38804 3.50525 8.29816C3.36869 8.26764 5.93269 8.87916 7.00413 9.13592C9.93974 9.81688 12.9632 10.5788 15.429 12.3579C16.6513 13.1976 17.4672 14.6897 17.4659 16.3084C17.4438 17.3021 16.6798 18.1488 15.7218 18.2065C12.2218 18.2177 9.93495 14.1754 11.5388 10.945C11.5729 10.8716 11.5074 11.0035 11.4842 11.048C11.0945 11.8281 10.8469 12.6566 10.7439 13.5353C10.2991 16.9499 12.5514 21.0916 16.1248 20.9956C18.6031 20.985 20.7481 18.7508 20.7777 16.1373C20.8093 15.7075 20.6909 15.29 20.7127 14.8583C20.7255 14.62 20.7891 14.4005 20.8652 14.1812C20.9901 13.7582 21.0303 13.2718 20.9778 12.8258L20.9749 12.8048L20.9746 12.8053ZM19.8601 10.6824L19.8609 10.6826C19.8609 10.6829 19.8611 10.6835 19.8611 10.6838C19.8609 10.6835 19.8603 10.6829 19.8601 10.6824Z" fill="#2964CC"/>
</g>
<defs>
<clipPath id="clip0_3280_26172">
<rect width="17.5" height="14" fill="white" transform="translate(3.5 6.99889)"/>
</clipPath>
</defs>
</svg>
